<?xml version="1.0" standalone="no"?>
<!DOCTYPE svg PUBLIC "-//W3C//DTD SVG 20010904//EN"
 "http://www.w3.org/TR/2001/REC-SVG-20010904/DTD/svg10.dtd">
<svg version="1.0" xmlns="http://www.w3.org/2000/svg"
 width="32.000000pt" height="32.000000pt" viewBox="0 0 32.000000 32.000000"
 preserveAspectRatio="xMidYMid meet">

<g transform="translate(0.000000,32.000000) scale(0.100000,-0.100000)"
fill="#000000" stroke="none">
<path d="M31 281 c-12 -8 -13 -14 -3 -36 7 -14 12 -36 12 -49 0 -12 3 -26 7
-30 4 -4 6 -22 5 -40 -6 -69 57 -99 88 -41 17 32 21 31 42 -5 32 -56 79 -31
84 43 3 38 9 69 29 133 9 30 -18 37 -63 17 -20 -9 -40 -17 -44 -17 -3 -1 -10
-5 -15 -10 -5 -5 -3 -6 5 -2 13 8 16 -3 4 -20 -11 -16 -44 -14 -38 3 3 8 2 11
-3 8 -6 -3 -13 1 -18 9 -7 13 -60 46 -73 46 -3 0 -11 -4 -19 -9z m80 -42 c24
-26 29 -39 29 -83 -1 -110 -59 -116 -73 -6 -4 34 -14 75 -23 91 -14 28 -14 29
12 29 16 0 37 -12 55 -31z m164 14 c-4 -10 -10 -29 -12 -43 -3 -14 -7 -32 -10
-40 -4 -8 -7 -30 -7 -49 -1 -21 -8 -38 -19 -45 -28 -17 -47 17 -47 82 0 46 4
58 29 83 33 33 78 41 66 12z"/>
</g>
</svg>
